<?xml version="1.0" encoding="utf-8"?>
<!-- Generator: Adobe Illustrator 21.0.2, SVG Export Plug-In . SVG Version: 6.00 Build 0)  -->
<svg version="1.1" id="Capa_1" xmlns="http://www.w3.org/2000/svg" xmlns:xlink="http://www.w3.org/1999/xlink" x="0px" y="0px"
	 width="297px" height="297px" viewBox="0 0 297 297" style="enable-background:new 0 0 297 297;" xml:space="preserve">
<path d="M275.3,134.8c-0.8-30-25-54.7-55.1-56c-17.9-0.7-34,6.7-45.1,18.8C171.7,88.2,166,80,158,73.1c-14.2-12.1-30.7-16.8-49.3-14
	c-13.1,2-24.4,7.9-33.5,17.4c-13.5,14.1-18.9,30.9-16.7,50.3c1.4,13.1,10.1,25.4,12.1,28.9c0.1,0.2-0.1,0.5-0.3,0.4
	c-4.6-1.5-28.8-9.4-36-11.6c-3.8-1.2-7.2-0.5-10.1,2.5c-1.9,2-2.5,4.5-2.5,7.1c0,9.4,0,18.8,0,28.2c0,5,0,10,0,15
	c0,4.6,0,9.2,0,13.7c0,3.3,1.1,6.2,4,8.2c2.8,1.9,5.7,2.1,8.8,1.1c10-3.1,30.7-9.9,36.3-11.8c0.7-0.2,1.4,0.3,1.4,1
	c0,4.8,0,9.7,0,14.5c0,3.8,0.6,7.3,3.2,10.2c2.8,3.2,6.4,4.5,10.7,4.5c49,0,98,0,147,0c0.5,0,1,0,1.5,0c5.6-0.2,10.5-4,11.9-9.4
	c0.5-1.9,0.6-4,0.6-5.9c0-7.3,0-22.4,0-37.4C264.4,175.7,275.9,156.6,275.3,134.8z M118.4,133.7c-8.3,0-14.8-6.6-14.9-14.9
	c-0.1-7.2,5.5-14.9,14.9-14.9c7.9,0,14.9,5.9,14.9,14.9C133.3,128.6,125.3,133.9,118.4,133.7z M217.8,120.9
	c8.6,0,15.5,6.9,15.5,15.5c0,3.8-1.4,7.3-3.6,10c-0.3,0.4-0.7,0.8-1.1,1.2c-0.1,0.1-0.1,0.1-0.2,0.2c-0.3,0.3-0.6,0.6-1,0.8
	c-0.1,0.1-0.2,0.2-0.3,0.3c-0.3,0.2-0.6,0.5-0.9,0.7c-0.1,0.1-0.3,0.2-0.4,0.3c-0.3,0.2-0.6,0.4-0.9,0.5c-0.2,0.1-0.3,0.2-0.5,0.2
	c-0.3,0.1-0.6,0.3-1,0.4c-0.2,0.1-0.4,0.1-0.6,0.2c-0.3,0.1-0.7,0.2-1,0.3c-0.2,0-0.4,0.1-0.6,0.1c-0.4,0.1-0.7,0.1-1.1,0.2
	c-0.2,0-0.3,0.1-0.5,0.1c-0.6,0.1-1.1,0.1-1.7,0.1c-0.5,0-1,0-1.4-0.1c-0.1,0-0.2,0-0.3,0c-0.4,0-0.9-0.1-1.3-0.2
	c-0.1,0-0.2,0-0.3-0.1c-0.4-0.1-0.8-0.2-1.1-0.3c-0.1,0-0.2-0.1-0.3-0.1c-0.3-0.1-0.7-0.2-1-0.4c-0.1-0.1-0.3-0.1-0.4-0.2
	c-0.3-0.1-0.7-0.3-1-0.5c-0.2-0.1-0.4-0.2-0.5-0.3c-0.2-0.1-0.3-0.2-0.5-0.3c-0.3-0.2-0.6-0.4-0.9-0.6c-0.1-0.1-0.2-0.2-0.3-0.2
	c-0.7-0.5-1.3-1.1-1.9-1.7c0,0-0.1-0.1-0.1-0.1c-0.4-0.4-0.7-0.9-1.1-1.3c-1.9-2.6-3-5.7-3-9.1C202.3,127.8,209.2,120.9,217.8,120.9
	z"/>
</svg>
