<?xml version="1.0" encoding="iso-8859-1"?>
<!-- Generator: Adobe Illustrator 18.0.0, SVG Export Plug-In . SVG Version: 6.00 Build 0)  -->
<!DOCTYPE svg PUBLIC "-//W3C//DTD SVG 1.1//EN" "http://www.w3.org/Graphics/SVG/1.1/DTD/svg11.dtd">
<svg version="1.1" id="Capa_1" xmlns="http://www.w3.org/2000/svg" xmlns:xlink="http://www.w3.org/1999/xlink" x="0px" y="0px"
	 viewBox="0 0 297 297" style="enable-background:new 0 0 297 297;" xml:space="preserve">
<path d="M24.334,287.211c0,5.406,4.383,9.789,9.789,9.789h242.289c5.406,0,9.789-4.383,9.789-9.789V125.684
	c0-5.406-4.383-9.789-9.789-9.789H92.011l177.586-50.037c2.499-0.704,4.617-2.372,5.885-4.637c1.27-2.266,1.587-4.942,0.882-7.44
	L263.22,7.137c-1.465-5.203-6.874-8.235-12.077-6.767L17.933,66.079c-2.499,0.704-4.616,2.372-5.885,4.637
	c-1.27,2.266-1.587,4.942-0.882,7.44l13.168,46.638c0.005,0.019-0.005-0.018,0,0V287.211z M203.131,164.353l28.879-28.879h20.768
	l-28.879,28.879H203.131z M154.673,164.353l28.879-28.879h20.768l-28.879,28.879H154.673z M106.215,164.353l28.879-28.879h20.768
	l-28.879,28.879H106.215z M57.757,164.353l28.879-28.879h20.768l-28.879,28.879H57.757z M93.78,65.049l-19.966,35.632l-19.988,5.632
	l19.967-35.632L93.78,65.049z M140.422,51.907l-19.966,35.632l-19.992,5.633l19.966-35.632L140.422,51.907z M187.066,38.765
	L167.1,74.397l-19.993,5.633l19.966-35.632L187.066,38.765z M233.705,25.624l-19.967,35.632l-19.987,5.632l19.966-35.632
	L233.705,25.624z M43.913,135.474h15.034l-15.034,15.034V135.474z M266.623,149.319v15.034h-15.034L266.623,149.319z M240.39,53.746
	l10.396-18.552l4.079,14.474L240.39,53.746z M47.141,78.19L36.745,96.743l-4.079-14.474L47.141,78.19z M43.913,277.421v-93.489
	h222.71v93.489H43.913z"/>
<g>
</g>
<g>
</g>
<g>
</g>
<g>
</g>
<g>
</g>
<g>
</g>
<g>
</g>
<g>
</g>
<g>
</g>
<g>
</g>
<g>
</g>
<g>
</g>
<g>
</g>
<g>
</g>
<g>
</g>
</svg>
