<?xml version="1.0" encoding="utf-8"?>
<!-- Generator: Adobe Illustrator 21.0.2, SVG Export Plug-In . SVG Version: 6.00 Build 0)  -->
<svg version="1.1" id="Layer_1" xmlns="http://www.w3.org/2000/svg" xmlns:xlink="http://www.w3.org/1999/xlink" x="0px" y="0px"
	 width="448.1px" height="448.1px" viewBox="0 0 448.1 448.1" style="enable-background:new 0 0 448.1 448.1;" xml:space="preserve"
	>
<path d="M224,9.5C105.6,9.5,9.5,105.6,9.5,224s96,214.5,214.5,214.5s214.5-96,214.5-214.5S342.5,9.5,224,9.5z M224,414
	c-104.8,0-190-85.2-190-190S119.3,34,224,34s190,85.2,190,190S328.8,414,224,414z"/>
<g>
	<path d="M277,123.1c1.2,26.8-22.5,53-52.8,53.2c-30.8,0.1-53.7-26.7-53.4-53.4c0.3-28.5,23.7-52.6,53.3-52.9
		C252,69.8,278.1,94.4,277,123.1z M196.7,123.3c-0.5,13.7,11.3,27.5,27.2,27.6c14.2,0.1,27.2-11.5,27.4-26.9
		c0.2-15.5-12-28.3-27-28.5C210.4,95.3,196.2,107.4,196.7,123.3z"/>
	<path d="M277,325.8c0.6,27.5-24,52.8-53.7,52.4c-27.3-0.4-52.7-23.6-52.4-53.9c0.2-27.2,23.8-52.8,53.9-52.4
		C254.2,272.3,278.3,297.8,277,325.8z M196.7,325c-0.4,15.3,12.6,27.4,27.1,27.7c15.2,0.3,27.8-12.8,27.6-28.4
		c-0.2-14-11.7-26.9-27.5-26.7C206.4,297.9,196.1,312.4,196.7,325z"/>
	<path d="M122.9,277.1c-28.6,1-53.1-25-53-53c0.1-27.7,23.4-53.2,53.7-53.1c26.2,0.1,52.8,22.7,52.6,53.5
		C176,254.6,149.9,278.4,122.9,277.1z M95.4,224.2c0.4,13.8,10.8,27.3,27.7,27.4c15.2,0.1,27.4-11.5,27.6-27.4
		c0.2-16.1-13.5-28.1-28.9-27.7C108.1,197,95.3,210,95.4,224.2z"/>
	<path d="M325.1,277.1c-27.4,1.1-53.2-22.8-53.3-52.8c-0.1-29.6,25.3-53.4,53-53.3c29,0,53.2,24.6,53.3,53
		C378.2,253.1,353.2,278,325.1,277.1z M352.7,224c-0.3-14-12-28.2-29.3-27.3c-12,0.6-25.5,9.9-25.8,27.3
		c-0.3,16.1,13,28.1,27.7,27.7C342.7,251.1,352.2,237.7,352.7,224z"/>
	<path d="M224.1,244.6c-10.4,1.2-20.8-10.2-20.8-20.5c0-10.4,10.4-20.8,20.7-20.8c10.4,0,20.8,10.4,20.8,20.7
		C244.8,234.5,234.4,245.8,224.1,244.6z"/>
</g>
</svg>
