<?xml version="1.0" encoding="utf-8"?>
<!-- Generator: Adobe Illustrator 21.0.2, SVG Export Plug-In . SVG Version: 6.00 Build 0)  -->
<svg version="1.1" id="Layer_1" xmlns="http://www.w3.org/2000/svg" xmlns:xlink="http://www.w3.org/1999/xlink" x="0px" y="0px"
	 width="160.02px" height="174.22px" viewBox="0 0 160.02 174.22" style="enable-background:new 0 0 160.02 174.22;"
	 xml:space="preserve">
<style type="text/css">
	.st0{fill:#FFFFFF;}
</style>
<title>Stacked_Blue</title>
<path class="st0" d="M134.38,158.96c15.29,0,25.63-10.34,25.63-25.63V25.63C160.01,10.34,149.67,0,134.38,0H25.63
	C10.34,0,0,10.34,0,25.63v148.58l13.13-15.25l0,0V25.63c0.011-6.888,5.592-12.469,12.48-12.48h108.75
	c6.888,0.011,12.469,5.592,12.48,12.48v107.7c-0.011,6.888-5.592,12.469-12.48,12.48H43.13l-13.14,13.15l-0.08-0.1"/>
<path class="st0" d="M56.68,83.23H44.36v41.36h12.32C84.21,124.59,84.21,83.23,56.68,83.23z M56.68,116.32h-4V91.5h4
	c16.08,0,16.08,24.81,0,24.81V116.32z"/>
<polygon class="st0" points="54.28,75.41 62.55,75.41 62.55,42.32 72.84,42.32 72.84,34.11 43.98,34.11 43.98,42.32 54.28,42.32 "/>
<polygon class="st0" points="94.98,52.27 80.67,34.11 78.01,34.11 78.01,76.1 86.4,76.1 86.4,53.02 94.98,64.13 103.57,53.02 
	103.51,76.1 111.9,76.1 111.9,34.11 109.29,34.11 "/>
<path class="st0" d="M108.92,103.91c2.6-1.79,3.7-5,3.82-8.16c0.17-7.29-4.4-12.55-11.74-12.55H84.63v41.42H101
	c6.793-0.055,12.255-5.606,12.2-12.399c0-0.014,0-0.027,0-0.041C113.222,108.887,111.621,105.794,108.92,103.91z M92.92,91.47h7.35
	c2.37,0,3.82,1.85,3.82,4.16c0.166,2.131-1.427,3.993-3.558,4.158c-0.087,0.007-0.174,0.01-0.262,0.011h-7.35V91.47L92.92,91.47z
	 M100.27,116.34h-7.35v-8.27h7.35c2.242-0.055,4.104,1.717,4.159,3.958c0.001,0.051,0.002,0.101,0.001,0.152
	c0.027,2.27-1.79,4.132-4.06,4.159c-0.02,0-0.04,0-0.06,0L100.27,116.34z"/>
</svg>
