<?xml version="1.0" encoding="utf-8"?>
<!-- Generator: Adobe Illustrator 21.1.0, SVG Export Plug-In . SVG Version: 6.00 Build 0)  -->
<svg version="1.1" id="Layer_1" xmlns="http://www.w3.org/2000/svg" xmlns:xlink="http://www.w3.org/1999/xlink" x="0px" y="0px"
	 width="27.372px" height="18.611px" viewBox="0 0 27.372 18.611" style="enable-background:new 0 0 27.372 18.611;"
	 xml:space="preserve">
<g>
	<circle style="fill:#C6C6C6;" cx="13.686" cy="9.306" r="3.464"/>
	<path style="fill:#C6C6C6;" d="M27.001,8.726C26.756,8.381,20.904,0.27,13.686,0.27c-7.312,0-13.077,8.117-13.319,8.462
		C0.124,9.079,0.126,9.541,0.371,9.885c0.246,0.345,6.096,8.456,13.315,8.456c7.218,0,13.07-8.111,13.315-8.456
		C27.248,9.538,27.248,9.073,27.001,8.726z M13.686,14.77c-3.013,0-5.464-2.451-5.464-5.464s2.451-5.464,5.464-5.464
		s5.464,2.451,5.464,5.464S16.699,14.77,13.686,14.77z"/>
</g>
</svg>
