<?xml version="1.0" encoding="utf-8"?>
<!-- Generator: Adobe Illustrator 21.1.0, SVG Export Plug-In . SVG Version: 6.00 Build 0)  -->
<svg version="1.1" id="Layer_1" xmlns="http://www.w3.org/2000/svg" xmlns:xlink="http://www.w3.org/1999/xlink" x="0px" y="0px"
	 width="55px" height="55px" viewBox="0 0 55 55" style="enable-background:new 0 0 55 55;" xml:space="preserve">
<g>
	<g>
		<path style="fill:#FE0A3D;" d="M8.587,13.387H2.985c-0.467,0-0.846-0.379-0.846-0.846c0-0.467,0.379-0.846,0.846-0.846h5.602
			c0.467,0,0.846,0.379,0.846,0.846C9.433,13.008,9.054,13.387,8.587,13.387z"/>
	</g>
	<g>
		<path style="fill:#FE0A3D;" d="M47.594,13.387H13.378c-0.467,0-0.846-0.379-0.846-0.846c0-0.467,0.379-0.846,0.846-0.846h34.216
			c0.467,0,0.846,0.379,0.846,0.846C48.439,13.008,48.061,13.387,47.594,13.387z"/>
	</g>
	<g>
		<path style="fill:#FE0A3D;" d="M43.648,18.46H2.985c-0.467,0-0.846-0.379-0.846-0.846s0.379-0.846,0.846-0.846h40.663
			c0.467,0,0.846,0.379,0.846,0.846S44.115,18.46,43.648,18.46z"/>
	</g>
	<g>
		<path style="fill:#FE0A3D;" d="M53.372,18.46h-4.897c-0.467,0-0.846-0.379-0.846-0.846s0.379-0.846,0.846-0.846h4.897
			c0.467,0,0.846,0.379,0.846,0.846S53.839,18.46,53.372,18.46z"/>
	</g>
	<g>
		<path style="fill:#FE0A3D;" d="M49.039,23.514H2.985c-0.467,0-0.846-0.379-0.846-0.846s0.379-0.846,0.846-0.846h46.053
			c0.467,0,0.846,0.379,0.846,0.846S49.506,23.514,49.039,23.514z"/>
	</g>
	<g>
		<path style="fill:#FE0A3D;" d="M39.561,28.475H2.985c-0.467,0-0.846-0.379-0.846-0.846c0-0.467,0.379-0.846,0.846-0.846h36.576
			c0.467,0,0.846,0.379,0.846,0.846C40.407,28.097,40.028,28.475,39.561,28.475z"/>
	</g>
	<g>
		<path style="fill:#FE0A3D;" d="M46.043,28.475h-1.831c-0.467,0-0.846-0.379-0.846-0.846c0-0.467,0.379-0.846,0.846-0.846h1.831
			c0.467,0,0.846,0.379,0.846,0.846C46.889,28.097,46.51,28.475,46.043,28.475z"/>
	</g>
	<g>
		<path style="fill:#FE0A3D;" d="M10.701,33.529H2.985c-0.467,0-0.846-0.379-0.846-0.846c0-0.467,0.379-0.846,0.846-0.846h7.716
			c0.467,0,0.846,0.379,0.846,0.846C11.546,33.151,11.168,33.529,10.701,33.529z"/>
	</g>
	<g>
		<path style="fill:#FE0A3D;" d="M52.244,33.529H15.827c-0.467,0-0.846-0.379-0.846-0.846c0-0.467,0.379-0.846,0.846-0.846h36.417
			c0.467,0,0.846,0.379,0.846,0.846C53.09,33.151,52.711,33.529,52.244,33.529z"/>
	</g>
	<g>
		<path style="fill:#FE0A3D;" d="M49.039,38.568H2.985c-0.467,0-0.846-0.379-0.846-0.846c0-0.467,0.379-0.846,0.846-0.846h46.053
			c0.467,0,0.846,0.379,0.846,0.846C49.884,38.19,49.506,38.568,49.039,38.568z"/>
	</g>
	<g>
		<path style="fill:#FE0A3D;" d="M35.967,43.622H2.985c-0.467,0-0.846-0.379-0.846-0.846c0-0.467,0.379-0.846,0.846-0.846h32.982
			c0.467,0,0.846,0.379,0.846,0.846C36.813,43.244,36.434,43.622,35.967,43.622z"/>
	</g>
	<g>
		<path style="fill:#FE0A3D;" d="M47.594,43.622H40.76c-0.467,0-0.846-0.379-0.846-0.846c0-0.467,0.379-0.846,0.846-0.846h6.834
			c0.467,0,0.846,0.379,0.846,0.846C48.439,43.244,48.061,43.622,47.594,43.622z"/>
	</g>
	<g>
		<path style="fill:#FE0A3D;" d="M44.211,48.696H6.843c-0.467,0-0.846-0.379-0.846-0.846c0-0.467,0.379-0.846,0.846-0.846h37.368
			c0.467,0,0.846,0.379,0.846,0.846C45.057,48.317,44.678,48.696,44.211,48.696z"/>
	</g>
	<g>
		<path style="fill:#FE0A3D;" d="M49.039,53.75H12.25c-0.467,0-0.846-0.379-0.846-0.846c0-0.467,0.379-0.846,0.846-0.846h36.789
			c0.467,0,0.846,0.379,0.846,0.846C49.884,53.371,49.506,53.75,49.039,53.75z"/>
	</g>
	<g>
		<path style="fill:#FE0A3D;" d="M8.587,53.75H2.878c-0.467,0-0.846-0.379-0.846-0.846c0-0.467,0.379-0.846,0.846-0.846h5.709
			c0.467,0,0.846,0.379,0.846,0.846C9.433,53.371,9.054,53.75,8.587,53.75z"/>
	</g>
</g>
<g>
	<path style="fill:#FE0A3D;" d="M44.211,2.941H6.843c-0.467,0-0.846-0.379-0.846-0.846S6.376,1.25,6.843,1.25h37.368
		c0.467,0,0.846,0.379,0.846,0.846S44.678,2.941,44.211,2.941z"/>
</g>
<g>
	<path style="fill:#FE0A3D;" d="M49.039,7.995H12.25c-0.467,0-0.846-0.379-0.846-0.846c0-0.467,0.379-0.846,0.846-0.846h36.789
		c0.467,0,0.846,0.379,0.846,0.846C49.884,7.617,49.506,7.995,49.039,7.995z"/>
</g>
<g>
	<path style="fill:#FE0A3D;" d="M8.587,7.995H2.878c-0.467,0-0.846-0.379-0.846-0.846c0-0.467,0.379-0.846,0.846-0.846h5.709
		c0.467,0,0.846,0.379,0.846,0.846C9.433,7.617,9.054,7.995,8.587,7.995z"/>
</g>
</svg>
