<?xml version="1.0" encoding="utf-8"?>
<!-- Generator: Adobe Illustrator 21.1.0, SVG Export Plug-In . SVG Version: 6.00 Build 0)  -->
<svg version="1.1" id="Layer_1" xmlns="http://www.w3.org/2000/svg" xmlns:xlink="http://www.w3.org/1999/xlink" x="0px" y="0px"
	 width="30px" height="30px" viewBox="0 0 30 30" style="enable-background:new 0 0 30 30;" xml:space="preserve">
<path style="fill:#FE0A3D;" d="M17.039,14.947v-0.275c0-0.097-0.052-0.186-0.135-0.235l-3.443-1.902
	c-0.181-0.105-0.407,0.026-0.407,0.235v7.373l0.003-0.001v2.249c0,0.456,0.115,0.918,0.359,1.342
	c0.245,0.423,0.587,0.754,0.982,0.982l5.787,3.364c0.395,0.228,0.853,0.36,1.341,0.36s0.947-0.132,1.342-0.36l5.79-3.173
	c0.396-0.228,0.738-0.559,0.982-0.982C29.885,23.501,30,23.039,30,22.582v-6.219c0-0.456-0.115-0.918-0.359-1.342
	c-0.245-0.423-0.587-0.754-0.982-0.982l-5.79-3.557c-0.395-0.228-0.853-0.359-1.342-0.359c-0.489,0-0.947,0.132-1.342,0.359
	l-2.132,1.452c-0.256,0.174-0.408,0.464-0.406,0.774l0.026,3.83c0.001,0.2,0.224,0.32,0.392,0.21l2.359-1.541
	c0.325-0.188,0.702-0.296,1.104-0.296c0.402,0,0.779,0.108,1.105,0.296l2.275,1.272c0.325,0.188,0.607,0.46,0.809,0.808
	c0.201,0.348,0.296,0.729,0.296,1.104v2.161c0,0.375-0.095,0.756-0.296,1.104c-0.201,0.349-0.483,0.621-0.809,0.808l-2.275,1.272
	c-0.325,0.187-0.702,0.296-1.105,0.296c-0.402,0-0.779-0.108-1.104-0.296l-2.273-1.272c-0.325-0.187-0.607-0.46-0.808-0.808
	c-0.201-0.348-0.296-0.729-0.296-1.104v-1.508L17.039,14.947z"/>
<g>
	<path style="fill:#FE0A3D;" d="M13.318,3.037c-0.181,0.104-0.292,0.298-0.292,0.507v3.245l-0.015-0.009l-3.6-2.079
		c-0.395-0.228-0.853-0.36-1.342-0.36c-0.489,0-0.947,0.132-1.342,0.36L1.342,7.811C0.947,8.039,0.604,8.37,0.36,8.794
		C0.115,9.217,0,9.679,0,10.135v6.219c0,0.456,0.115,0.918,0.36,1.341c0.244,0.424,0.587,0.754,0.982,0.983l5.386,3.109
		c0.395,0.228,0.853,0.36,1.342,0.36c0.489,0,0.947-0.132,1.342-0.36l2.619-1.512c0.263-0.152,0.425-0.432,0.425-0.736v-2.17v-1.652
		c0-0.24-0.26-0.39-0.467-0.269l-2.997,1.736c-0.313,0.181-0.677,0.286-1.064,0.286c-0.388,0-0.751-0.105-1.064-0.286l-1.803-1.045
		c-0.313-0.181-0.585-0.445-0.779-0.782c-0.194-0.337-0.285-0.705-0.285-1.068V12.2c0-0.363,0.092-0.731,0.285-1.068
		c0.194-0.337,0.466-0.6,0.779-0.782l1.803-1.044C7.175,9.124,7.538,9.02,7.926,9.02c0.388,0,0.751,0.105,1.064,0.286l7.632,4.357
		c0.177,0.101,0.396-0.027,0.396-0.23l-0.003-4.847l0.004-6.749c0-0.45-0.487-0.732-0.877-0.507L13.318,3.037z"/>
</g>
</svg>
