<?xml version="1.0" encoding="utf-8"?>
<!-- Generator: Adobe Illustrator 21.1.0, SVG Export Plug-In . SVG Version: 6.00 Build 0)  -->
<svg version="1.1" id="Layer_1" xmlns="http://www.w3.org/2000/svg" xmlns:xlink="http://www.w3.org/1999/xlink" x="0px" y="0px"
	 width="40.6px" height="40.6px" viewBox="0 0 40.6 40.6" style="enable-background:new 0 0 40.6 40.6;" xml:space="preserve">
<path style="fill:#C6C6C6;" d="M20.25,0.417C9.302,0.417,0.417,9.302,0.417,20.25S9.293,40.083,20.25,40.083
	s19.833-8.876,19.833-19.833S31.207,0.417,20.25,0.417z M20.25,37.818c-9.69,0-17.568-7.878-17.568-17.568S10.569,2.682,20.25,2.682
	S37.818,10.56,37.818,20.25S29.94,37.818,20.25,37.818z"/>
<g>
	<path style="fill:#C6C6C6;" d="M25.151,10.92c0.111,2.478-2.08,4.901-4.882,4.919c-2.848,0.009-4.965-2.469-4.938-4.938
		c0.028-2.635,2.191-4.864,4.928-4.891C22.839,5.992,25.252,8.267,25.151,10.92z M17.726,10.939
		c-0.046,1.267,1.045,2.543,2.515,2.552c1.313,0.009,2.515-1.063,2.533-2.487c0.018-1.433-1.11-2.617-2.497-2.635
		C18.993,8.35,17.68,9.469,17.726,10.939z"/>
	<path style="fill:#C6C6C6;" d="M25.151,29.663c0.055,2.543-2.219,4.882-4.965,4.845c-2.524-0.037-4.873-2.182-4.845-4.984
		c0.018-2.515,2.201-4.882,4.984-4.845C23.042,24.716,25.271,27.074,25.151,29.663z M17.726,29.589
		c-0.037,1.415,1.165,2.533,2.506,2.561c1.405,0.028,2.57-1.184,2.552-2.626c-0.018-1.294-1.082-2.487-2.543-2.469
		C18.623,27.083,17.67,28.424,17.726,29.589z"/>
	<path style="fill:#C6C6C6;" d="M10.902,25.16c-2.644,0.092-4.91-2.312-4.901-4.901c0.009-2.561,2.164-4.919,4.965-4.91
		c2.423,0.009,4.882,2.099,4.864,4.947C15.812,23.079,13.398,25.28,10.902,25.16z M8.359,20.268
		c0.037,1.276,0.999,2.524,2.561,2.533c1.405,0.009,2.533-1.063,2.552-2.533c0.018-1.489-1.248-2.598-2.672-2.561
		C9.534,17.753,8.35,18.956,8.359,20.268z"/>
	<path style="fill:#C6C6C6;" d="M29.598,25.16c-2.533,0.102-4.919-2.108-4.928-4.882c-0.009-2.737,2.339-4.938,4.901-4.928
		c2.681,0,4.919,2.275,4.928,4.901C34.508,22.941,32.196,25.243,29.598,25.16z M32.15,20.25c-0.028-1.294-1.11-2.607-2.709-2.524
		c-1.11,0.055-2.358,0.915-2.386,2.524c-0.028,1.489,1.202,2.598,2.561,2.561C31.225,22.756,32.104,21.517,32.15,20.25z"/>
	<path style="fill:#C6C6C6;" d="M20.259,22.155c-0.962,0.111-1.923-0.943-1.923-1.895c0-0.962,0.962-1.923,1.914-1.923
		c0.962,0,1.923,0.962,1.923,1.914C22.173,21.221,21.212,22.266,20.259,22.155z"/>
</g>
</svg>
