<?xml version="1.0" encoding="utf-8"?>
<!-- Generator: Adobe Illustrator 21.0.2, SVG Export Plug-In . SVG Version: 6.00 Build 0)  -->
<svg version="1.1" id="Capa_1" xmlns="http://www.w3.org/2000/svg" xmlns:xlink="http://www.w3.org/1999/xlink" x="0px" y="0px"
	 width="24.002px" height="24.002px" viewBox="0 0 24.002 24.002" style="enable-background:new 0 0 24.002 24.002;"
	 xml:space="preserve">
<style type="text/css">
	.st0{fill:#FFFFFF;}
</style>
<g id="Search">
	<path class="st0" d="M23.117,20.355l-5.079-5.078c-0.027-0.027-0.059-0.046-0.087-0.071c0.999-1.516,1.583-3.33,1.583-5.282
		c0-5.308-4.303-9.611-9.611-9.611S0.312,4.616,0.312,9.924c0,5.308,4.303,9.611,9.611,9.611c1.951,0,3.766-0.583,5.282-1.583
		c0.025,0.028,0.044,0.06,0.071,0.087l5.079,5.079c0.763,0.763,2,0.763,2.763,0C23.88,22.354,23.88,21.118,23.117,20.355z
		 M9.924,16.203c-3.468,0-6.279-2.811-6.279-6.279c0-3.468,2.811-6.279,6.279-6.279c3.468,0,6.279,2.811,6.279,6.279
		S13.391,16.203,9.924,16.203z"/>
</g>
</svg>
