<?xml version="1.0" encoding="utf-8"?>
<!-- Generator: Adobe Illustrator 21.0.2, SVG Export Plug-In . SVG Version: 6.00 Build 0)  -->
<svg version="1.1" id="Layer_1" xmlns="http://www.w3.org/2000/svg" xmlns:xlink="http://www.w3.org/1999/xlink" x="0px" y="0px"
	 width="40.604px" height="44.207px" viewBox="0 0 40.604 44.207" style="enable-background:new 0 0 40.604 44.207;"
	 xml:space="preserve">
<style type="text/css">
	.st0{fill:#FFFFFF;}
</style>
<path class="st0" d="M33.636,39.725c3.75,0,6.285-2.536,6.285-6.285V7.028c0-3.75-2.536-6.285-6.285-6.285H6.967
	c-3.75,0-6.285,2.536-6.285,6.285v36.437l3.22-3.74l0,0V7.028C3.904,5.339,5.273,3.97,6.962,3.967h26.669
	c1.689,0.003,3.058,1.371,3.061,3.061v26.412c-0.003,1.689-1.371,3.058-3.061,3.061H11.259l-3.222,3.225L8.017,39.7 M14.582,21.153
	H11.56v10.143h3.021C21.333,31.296,21.333,21.153,14.582,21.153z M14.582,29.268h-0.981v-6.087h0.981c3.943,0,3.943,6.084,0,6.084
	V29.268z M13.993,19.235h2.028v-8.115h2.523V9.107h-7.077v2.013h2.526V19.235z M23.974,13.561l-3.509-4.453h-0.652v10.297h2.058
	v-5.66l2.104,2.725l2.107-2.725l-0.015,5.66h2.058V9.107h-0.64L23.974,13.561z M27.393,26.225c0.638-0.439,0.907-1.226,0.937-2.001
	c0.042-1.788-1.079-3.078-2.879-3.078h-4.014v10.158h4.014c1.666-0.013,3.005-1.375,2.992-3.041c0-0.003,0-0.007,0-0.01
	C28.448,27.445,28.055,26.687,27.393,26.225z M23.469,23.174h1.802c0.581,0,0.937,0.454,0.937,1.02
	c0.041,0.523-0.35,0.979-0.873,1.02c-0.021,0.002-0.043,0.002-0.064,0.003h-1.802V23.174L23.469,23.174z M25.271,29.273h-1.802
	v-2.028h1.802c0.55-0.013,1.006,0.421,1.02,0.971c0,0.013,0,0.025,0,0.037c0.007,0.557-0.439,1.013-0.996,1.02
	c-0.005,0-0.01,0-0.015,0L25.271,29.273z"/>
</svg>
