<?xml version="1.0" encoding="utf-8"?>
<!-- Generator: Adobe Illustrator 21.1.0, SVG Export Plug-In . SVG Version: 6.00 Build 0)  -->
<svg version="1.1" id="Layer_1" xmlns="http://www.w3.org/2000/svg" xmlns:xlink="http://www.w3.org/1999/xlink" x="0px" y="0px"
	 width="17.882px" height="17.835px" viewBox="0 0 17.882 17.835" style="enable-background:new 0 0 17.882 17.835;"
	 xml:space="preserve">
<path style="fill:#C6C6C6;" d="M13.171,3.652V2.461V0.693c0-0.117-0.095-0.213-0.213-0.213h-1.77H6.606h-1.77
	c-0.117,0-0.213,0.095-0.213,0.213v2.96H0.746c-0.146,0-0.265,0.119-0.265,0.265v1.674c0,0.146,0.119,0.265,0.265,0.265h16.39
	c0.146,0,0.265-0.119,0.265-0.265V3.917c0-0.146-0.119-0.265-0.265-0.265H13.171z M6.606,2.461h4.582v1.191H6.606V2.461z
	 M2.508,6.869h12.778v9.194c0,0.714-0.579,1.292-1.292,1.292H3.8c-0.714,0-1.292-0.579-1.292-1.292V6.869z"/>
</svg>
